<?xml version="1.0" encoding="UTF-8"?>
<!DOCTYPE svg PUBLIC "-//W3C//DTD SVG 1.1//EN" "http://www.w3.org/Graphics/SVG/1.1/DTD/svg11.dtd">
<!-- Creator: CorelDRAW X7 -->
<svg xmlns="http://www.w3.org/2000/svg" xml:space="preserve" width="12.1918mm" height="9.2286mm" version="1.1" style="shape-rendering:geometricPrecision; text-rendering:geometricPrecision; image-rendering:optimizeQuality; fill-rule:evenodd; clip-rule:evenodd"
viewBox="0 0 1219 923"
 xmlns:xlink="http://www.w3.org/1999/xlink">
 <defs>
  <style type="text/css">
   <![CDATA[
    .fil0 {fill:url(#id0)}
   ]]>
  </style>
  <linearGradient id="id0" gradientUnits="userSpaceOnUse" x1="254.8" y1="40.13" x2="964.39" y2="882.74">
   <stop offset="0" style="stop-opacity:1; stop-color:#3159A5"/>
   <stop offset="1" style="stop-opacity:1; stop-color:#A62185"/>
  </linearGradient>
 </defs>
 <g id="Layer_x0020_1">
  <metadata id="CorelCorpID_0Corel-Layer"/>
  <path class="fil0" d="M894 735l0 0c74,-74 120,-176 120,-288 0,-224 -181,-405 -404,-405 -224,0 -405,181 -405,405 0,112 46,214 120,288 9,9 15,22 15,36 0,28 -23,51 -51,51 -13,0 -26,-6 -35,-15l0 0c-93,-92 -151,-219 -151,-360 0,-141 58,-269 151,-360l0 0c9,-9 15,-22 15,-36 0,-28 -23,-51 -51,-51 -14,0 -26,6 -35,15l0 0c-112,110 -181,263 -181,432 0,169 69,322 181,432l0 0c27,27 65,44 106,44 84,0 152,-68 152,-152 0,-42 -17,-81 -45,-108l0 0c-55,-55 -90,-132 -90,-216 0,-168 136,-304 304,-304 167,0 303,136 303,304 0,84 -34,161 -90,216l0 0c-28,27 -45,66 -45,108 0,84 68,152 152,152 41,0 79,-17 107,-44 111,-110 180,-263 180,-432 0,-169 -69,-322 -180,-432l0 0c-10,-9 -22,-15 -36,-15 -28,0 -51,23 -51,51 0,14 6,27 15,36l0 0c93,91 151,219 151,360 0,141 -58,268 -151,360l0 0c-9,9 -21,15 -35,15 -28,0 -51,-23 -51,-51 0,-14 6,-27 15,-36l0 0zm-284 -439c-84,0 -152,68 -152,152 0,83 68,151 152,151 69,0 127,-47 145,-111l-30 0 -115 0 100 -81 15 0 30 0 87 0c2,13 3,27 3,41 0,130 -105,235 -235,235 -131,0 -236,-105 -236,-235 0,-131 105,-236 236,-236 85,0 160,45 201,113l-113 0c-25,-18 -55,-29 -88,-29z"/>
 </g>
</svg>
