<?xml version="1.0" encoding="UTF-8"?>
<!DOCTYPE svg PUBLIC "-//W3C//DTD SVG 1.1//EN" "http://www.w3.org/Graphics/SVG/1.1/DTD/svg11.dtd">
<!-- Creator: CorelDRAW X7 -->
<svg xmlns="http://www.w3.org/2000/svg" xml:space="preserve" width="86.6986mm" height="17.3566mm" version="1.1" style="shape-rendering:geometricPrecision; text-rendering:geometricPrecision; image-rendering:optimizeQuality; fill-rule:evenodd; clip-rule:evenodd"
viewBox="0 0 8670 1736"
 xmlns:xlink="http://www.w3.org/1999/xlink">
 <defs>
  <style type="text/css">
   <![CDATA[
    .fil0 {fill:#5F5D5D}
    .fil1 {fill:#5F5D5D;fill-rule:nonzero}
   ]]>
  </style>
 </defs>
 <g id="Layer_x0020_1">
  <metadata id="CorelCorpID_0Corel-Layer"/>
  <path class="fil0" d="M1674 1381l0 0c140,-138 226,-329 226,-541 0,-420 -340,-760 -761,-760 -420,0 -760,340 -760,760 0,212 86,403 226,541 17,18 28,42 28,68 0,53 -42,95 -95,95 -26,0 -50,-10 -67,-27l0 0c-174,-173 -283,-412 -283,-677 0,-264 109,-504 283,-676l0 0c18,-17 28,-41 28,-68 0,-52 -42,-95 -95,-95 -26,0 -49,11 -67,27l0 0c-209,207 -339,495 -339,812 0,318 130,605 339,812l0 0c52,51 123,83 201,83 158,0 285,-128 285,-286 0,-79 -32,-151 -84,-203l0 0c-105,-103 -170,-247 -170,-406 0,-315 256,-570 570,-570 315,0 571,255 571,570 0,159 -65,303 -170,406l0 0c-52,52 -85,124 -85,203 0,158 128,286 286,286 78,0 149,-32 201,-83 209,-207 339,-494 339,-812 0,-317 -130,-604 -339,-811l0 -1c-18,-16 -41,-27 -67,-27 -53,0 -95,43 -95,95 0,27 10,51 28,68l0 0c174,172 282,412 282,676 0,265 -108,504 -282,677l0 0c-17,17 -41,27 -67,27 -53,0 -95,-42 -95,-95 0,-26 11,-50 28,-68l0 0zm-535 -823c-156,0 -284,127 -284,284 0,157 128,284 284,284 131,0 241,-88 274,-207l-57 0 -217 0 190 -154 27 0 57 0 163 0c4,25 6,51 6,77 0,245 -198,443 -443,443 -244,0 -443,-198 -443,-443 0,-245 199,-443 443,-443 161,0 301,85 379,213l-212 0c-47,-34 -104,-54 -167,-54z"/>
  <path class="fil1" d="M8528 941c0,-90 -37,-136 -112,-136 -31,0 -59,12 -82,37 -24,25 -39,58 -45,99l239 0zm-4663 -459l-216 803 -174 0 -142 -535c-7,-26 -11,-56 -13,-88l-2 0c-4,37 -9,66 -14,87l-146 536 -180 0 -218 -803 171 0 129 559c6,24 10,54 12,88l4 0c1,-25 6,-55 15,-90l155 -557 164 0 143 563c4,18 8,45 12,83l3 0c2,-29 6,-58 13,-86l126 -560 158 0zm243 541c-65,9 -98,38 -98,88 0,23 8,41 23,55 16,14 37,22 64,22 36,0 66,-13 89,-39 24,-26 36,-58 36,-97l0 -43 -114 14zm-185 -275c26,-14 59,-27 100,-36 42,-9 78,-14 111,-14 155,0 232,79 232,236l0 351 -145 0 0 -84 -2 0c-39,65 -96,98 -172,98 -55,0 -99,-15 -132,-46 -32,-31 -48,-73 -48,-126 0,-109 65,-172 195,-190l160 -22c0,-73 -36,-109 -107,-109 -68,0 -132,21 -192,64l0 -122zm1111 -36l-218 573 -169 0 -207 -573 164 0 113 372c10,35 17,67 19,95l3 0c3,-28 9,-58 19,-92l117 -375 159 0zm425 229c0,-90 -37,-136 -112,-136 -32,0 -59,12 -83,37 -24,25 -39,58 -44,99l239 0zm143 100l-382 0c6,98 61,147 165,147 64,0 121,-17 170,-51l0 116c-53,31 -121,46 -204,46 -89,0 -158,-26 -208,-77 -50,-52 -75,-124 -75,-217 0,-91 27,-164 80,-221 54,-57 120,-86 200,-86 80,0 143,25 187,74 45,49 67,116 67,202l0 67zm773 190c-79,45 -174,68 -286,68 -124,0 -223,-36 -296,-108 -74,-72 -110,-170 -110,-295 0,-125 40,-227 120,-307 80,-80 185,-120 317,-120 86,0 160,13 224,37l0 151c-62,-37 -138,-56 -229,-56 -79,0 -144,26 -194,79 -50,53 -75,122 -75,208 0,88 23,156 68,205 45,49 107,74 185,74 48,0 88,-8 120,-24l0 -177 -165 0 0 -127 321 0 0 392zm670 54l-151 0 0 -88 -3 0c-42,68 -101,102 -176,102 -134,0 -201,-80 -201,-242l0 -345 152 0 0 329c0,93 36,139 108,139 36,0 64,-12 86,-38 23,-25 34,-59 34,-101l0 -329 151 0 0 573zm144 -762c0,-23 9,-42 25,-58 17,-16 38,-24 64,-24 26,0 47,8 64,24 17,15 26,35 26,58 0,24 -9,44 -26,59 -17,16 -38,24 -64,24 -26,0 -47,-8 -64,-24 -16,-16 -25,-36 -25,-59zm12 762l0 -573 152 0 0 573 -152 0zm699 -328c0,-40 -12,-74 -37,-100 -25,-27 -56,-40 -93,-40 -44,0 -78,17 -103,51 -26,34 -38,80 -38,139 0,55 12,98 36,128 25,30 58,45 99,45 40,0 73,-15 98,-47 26,-32 38,-72 38,-121l0 -55zm150 328l-152 0 0 -84 -3 0c-40,65 -101,98 -182,98 -72,0 -130,-26 -173,-77 -43,-52 -65,-122 -65,-211 0,-94 24,-170 73,-227 48,-57 111,-86 188,-86 75,0 129,28 159,84l3 0 0 -345 152 0 0 848zm622 -244l-383 0c6,98 61,147 166,147 63,0 120,-17 170,-51l0 116c-53,31 -121,46 -205,46 -89,0 -158,-26 -208,-77 -49,-52 -74,-124 -74,-217 0,-91 27,-164 80,-221 53,-57 120,-86 200,-86 80,0 142,25 187,74 44,49 67,116 67,202l0 67z"/>
 </g>
</svg>
