<?xml version="1.0" encoding="UTF-8"?>
<!DOCTYPE svg PUBLIC "-//W3C//DTD SVG 1.1//EN" "http://www.w3.org/Graphics/SVG/1.1/DTD/svg11.dtd">
<!-- Creator: CorelDRAW X7 -->
<svg xmlns="http://www.w3.org/2000/svg" xml:space="preserve" width="43.3492mm" height="8.6358mm" version="1.1" style="shape-rendering:geometricPrecision; text-rendering:geometricPrecision; image-rendering:optimizeQuality; fill-rule:evenodd; clip-rule:evenodd"
viewBox="0 0 4335 864"
 xmlns:xlink="http://www.w3.org/1999/xlink">
 <defs>
  <style type="text/css">
   <![CDATA[
    .fil0 {fill:url(#id0)}
    .fil1 {fill:url(#id1);fill-rule:nonzero}
   ]]>
  </style>
  <linearGradient id="id0" gradientUnits="userSpaceOnUse" x1="238.58" y1="36.51" x2="904.35" y2="827.07">
   <stop offset="0" style="stop-opacity:1; stop-color:#3159A5"/>
   <stop offset="1" style="stop-opacity:1; stop-color:#A62185"/>
  </linearGradient>
  <linearGradient id="id1" gradientUnits="userSpaceOnUse" x1="4333.52" y1="431.93" x2="1381.04" y2="431.93">
   <stop offset="0" style="stop-opacity:1; stop-color:#9D2988"/>
   <stop offset="1" style="stop-opacity:1; stop-color:#383C91"/>
  </linearGradient>
 </defs>
 <g id="Layer_x0020_1">
  <metadata id="CorelCorpID_0Corel-Layer"/>
  <g id="_981531520">
   <path class="fil0" d="M838 688l0 0c70,-69 113,-164 113,-270 0,-210 -170,-380 -380,-380 -209,0 -379,170 -379,380 0,106 43,201 112,270 9,9 15,21 15,34 0,26 -22,48 -48,48 -13,0 -25,-6 -33,-14l0 0c-87,-86 -142,-206 -142,-338 0,-132 55,-252 142,-338l0 0c8,-8 14,-20 14,-34 0,-26 -22,-47 -48,-47 -13,0 -25,5 -33,14l0 0c-105,103 -170,246 -170,405 0,159 65,302 170,406l0 0c26,25 61,41 100,41 79,0 143,-64 143,-143 0,-40 -17,-75 -43,-101l0 0c-52,-52 -84,-124 -84,-203 0,-157 127,-285 284,-285 158,0 285,128 285,285 0,79 -32,151 -84,203l0 0c-26,26 -43,61 -43,101 0,79 64,143 143,143 39,0 74,-16 100,-41 105,-104 170,-247 170,-406 0,-158 -65,-302 -170,-405l0 0c-8,-9 -20,-14 -33,-14 -27,0 -48,21 -48,47 0,14 6,26 14,34l0 0c87,86 141,206 141,338 0,132 -54,252 -141,338l0 0c-8,8 -20,14 -33,14 -26,0 -48,-22 -48,-48 0,-13 6,-25 14,-34l0 0zm-267 -411c-78,0 -141,64 -141,142 0,78 63,142 141,142 66,0 120,-44 137,-104l-28 0 -109 0 95 -76 14 0 28 0 81 0c3,12 4,25 4,38 0,122 -99,221 -222,221 -122,0 -221,-99 -221,-221 0,-122 99,-221 221,-221 81,0 151,42 190,106l-106 0c-24,-17 -52,-27 -84,-27z"/>
   <path class="fil1" d="M4262 469c0,-46 -19,-68 -56,-68 -16,0 -30,6 -41,18 -12,12 -20,29 -23,50l120 0zm-2329 -230l-108 401 -87 0 -71 -267c-3,-13 -6,-28 -6,-44l-2 0c-2,19 -4,33 -7,43l-72 268 -90 0 -109 -401 85 0 65 279c3,12 4,27 5,44l2 0c1,-12 4,-27 8,-45l78 -278 81 0 72 281c2,9 4,23 6,42l1 0c1,-15 3,-29 7,-43l63 -280 79 0zm121 270c-33,5 -49,19 -49,44 0,12 4,21 12,28 8,7 18,10 31,10 19,0 33,-6 45,-19 12,-13 18,-29 18,-48l0 -22 -57 7zm-92 -137c13,-7 29,-13 50,-18 20,-5 39,-7 55,-7 78,0 116,39 116,118l0 175 -72 0 0 -42 -2 0c-19,33 -47,49 -85,49 -28,0 -50,-7 -66,-23 -16,-16 -24,-36 -24,-63 0,-54 32,-86 97,-95l80 -10c0,-37 -18,-55 -53,-55 -34,0 -66,10 -96,32l0 -61zm555 -18l-109 286 -85 0 -103 -286 82 0 56 186c5,17 9,33 10,47l1 0c2,-14 5,-29 10,-46l58 -187 80 0zm212 115c0,-46 -19,-68 -56,-68 -16,0 -30,6 -41,18 -12,12 -20,29 -23,50l120 0zm71 49l-191 0c3,49 31,73 83,73 32,0 60,-8 85,-25l0 58c-26,16 -61,23 -102,23 -45,0 -79,-13 -104,-38 -25,-26 -37,-62 -37,-109 0,-45 13,-82 40,-110 26,-29 60,-43 100,-43 40,0 71,12 93,37 22,24 33,58 33,101l0 33zm386 95c-39,23 -87,34 -142,34 -62,0 -112,-18 -148,-54 -37,-36 -55,-85 -55,-147 0,-63 20,-114 59,-154 40,-39 93,-59 159,-59 43,0 80,6 112,18l0 76c-31,-19 -69,-28 -114,-28 -40,0 -72,13 -97,39 -25,26 -38,61 -38,104 0,44 11,78 34,102 23,25 53,37 93,37 24,0 44,-4 60,-12l0 -88 -83 0 0 -63 160 0 0 195zm335 27l-76 0 0 -44 -1 0c-21,34 -50,51 -88,51 -67,0 -100,-40 -100,-121l0 -172 76 0 0 164c0,47 18,70 54,70 17,0 32,-6 43,-19 11,-13 16,-30 16,-51l0 -164 76 0 0 286zm72 -380c0,-12 4,-22 12,-29 9,-8 19,-12 32,-12 13,0 24,4 32,11 9,8 13,18 13,30 0,11 -4,21 -13,29 -8,8 -19,12 -32,12 -12,0 -23,-4 -31,-12 -9,-8 -13,-18 -13,-29zm6 380l0 -286 76 0 0 286 -76 0zm349 -164c0,-20 -6,-36 -18,-50 -13,-13 -28,-20 -47,-20 -22,0 -39,9 -51,26 -13,17 -19,40 -19,69 0,28 6,49 18,64 12,15 28,23 49,23 20,0 36,-8 49,-24 13,-16 19,-36 19,-60l0 -28zm75 164l-76 0 0 -42 -1 0c-21,33 -51,49 -91,49 -36,0 -65,-13 -87,-38 -21,-26 -32,-61 -32,-106 0,-47 12,-84 36,-113 24,-29 56,-43 94,-43 38,0 64,14 80,42l1 0 0 -172 76 0 0 423zm311 -122l-192 0c3,49 31,73 83,73 32,0 60,-8 85,-25l0 58c-26,16 -60,23 -102,23 -45,0 -79,-13 -104,-38 -25,-26 -37,-62 -37,-109 0,-45 13,-82 40,-110 26,-29 60,-43 100,-43 40,0 71,12 93,37 22,24 34,58 34,101l0 33z"/>
  </g>
 </g>
</svg>
